<?xml version="1.0" encoding="UTF-8" standalone="no"?>
<!-- Created with Inkscape (http://www.inkscape.org/) -->

<svg
   width="102.707"
   height="102.70705"
   viewBox="0 0 27.174561 27.174575"
   version="1.1"
   id="svg5"
   xml:space="preserve"
   inkscape:version="1.2 (dc2aedaf03, 2022-05-15)"
   sodipodi:docname="рисунок.svg"
   xmlns:inkscape="http://www.inkscape.org/namespaces/inkscape"
   xmlns:sodipodi="http://sodipodi.sourceforge.net/DTD/sodipodi-0.dtd"
   xmlns="http://www.w3.org/2000/svg"
   xmlns:svg="http://www.w3.org/2000/svg"><sodipodi:namedview
     id="namedview7"
     pagecolor="#ffffff"
     bordercolor="#000000"
     borderopacity="0.25"
     inkscape:showpageshadow="2"
     inkscape:pageopacity="0.0"
     inkscape:pagecheckerboard="0"
     inkscape:deskcolor="#d1d1d1"
     inkscape:document-units="mm"
     showgrid="false"
     inkscape:zoom="0.45078057"
     inkscape:cx="851.8557"
     inkscape:cy="652.20202"
     inkscape:window-width="1920"
     inkscape:window-height="1017"
     inkscape:window-x="-8"
     inkscape:window-y="-8"
     inkscape:window-maximized="1"
     inkscape:current-layer="layer1" /><defs
     id="defs2"><inkscape:path-effect
       effect="powerclip"
       id="path-effect2698-5"
       is_visible="true"
       lpeversion="1"
       inverse="true"
       flatten="false"
       hide_clip="false"
       message="Используйте чётно-нечётное правило заливки в диалоговом окне &lt;b&gt;заливки и обводки&lt;/b&gt;, если результат выравнивания после преобразования вырезки в контуры отсутствует." /><clipPath
       clipPathUnits="userSpaceOnUse"
       id="clipath_lpe_path-effect2698-5"><circle
         style="display:none;fill:#000000;fill-opacity:1;stroke-width:0.794004"
         id="circle2884"
         cx="521.6441"
         cy="57.410133"
         r="4.0290527"
         d="m 525.67316,57.410133 a 4.0290527,4.0290527 0 0 1 -4.02906,4.029053 4.0290527,4.0290527 0 0 1 -4.02905,-4.029053 4.0290527,4.0290527 0 0 1 4.02905,-4.029052 4.0290527,4.0290527 0 0 1 4.02906,4.029052 z" /><path
         id="lpe_path-effect2698-5"
         style="fill:#000000;fill-opacity:1;stroke-width:0.794004"
         class="powerclip"
         d="m 507.42332,43.189369 h 28.81571 v 28.815705 h -28.81571 z m 18.24984,14.220764 a 4.0290527,4.0290527 0 0 0 -4.02906,-4.029052 4.0290527,4.0290527 0 0 0 -4.02905,4.029052 4.0290527,4.0290527 0 0 0 4.02905,4.029053 4.0290527,4.0290527 0 0 0 4.02906,-4.029053 z" /></clipPath></defs><g
     inkscape:label="Слой 1"
     inkscape:groupmode="layer"
     id="layer1"
     transform="translate(-478.39264,-213.88646)"><g
       id="g2909"
       transform="translate(-70.40862,10.076716)"
       inkscape:export-filename="g2909.png"
       inkscape:export-xdpi="96"
       inkscape:export-ydpi="96"><circle
         style="fill:#000000;fill-opacity:0.502632;stroke:none;stroke-width:1.854"
         id="path28870-0-7-9"
         cx="562.38855"
         cy="217.39703"
         r="13.587285" /><path
         style="fill:#cdcdcd;fill-opacity:1;stroke-width:1.39642"
         id="path2558-0"
         clip-path="url(#clipath_lpe_path-effect2698-5)"
         inkscape:path-effect="#path-effect2698-5"
         sodipodi:type="arc"
         sodipodi:cx="521.83118"
         sodipodi:cy="57.597221"
         sodipodi:rx="9.4078522"
         sodipodi:ry="9.4078522"
         d="m 531.23903,57.597221 a 9.4078522,9.4078522 0 0 1 -9.40785,9.407853 9.4078522,9.4078522 0 0 1 -9.40786,-9.407853 9.4078522,9.4078522 0 0 1 9.40786,-9.407852 9.4078522,9.4078522 0 0 1 9.40785,9.407852 z"
         transform="matrix(0.74683255,0,0,0.74683255,172.66802,174.38155)" /><rect
         style="fill:#cccccc;fill-opacity:1;stroke-width:1.03609"
         id="rect2685-5-8-3-7-7-7-2-6-3-9-3-74"
         width="3.8717601"
         height="4.4166093"
         x="560.4527"
         y="-212.57925"
         ry="0.34498641"
         transform="scale(1,-1)" /><rect
         style="fill:#cccccc;fill-opacity:1;stroke-width:1.03609"
         id="rect2685-5-8-3-7-7-7-2-6-3-9-3-7-5"
         width="3.8717601"
         height="4.4166093"
         x="560.4527"
         y="-226.63144"
         ry="0.34498641"
         transform="scale(1,-1)" /><rect
         style="fill:#cccccc;fill-opacity:1;stroke-width:1.03609"
         id="rect2685-5-8-3-7-7-7-2-6-3-9-3-8-4"
         width="3.8717601"
         height="4.4166093"
         x="215.46117"
         y="553.15417"
         ry="0.34498641"
         transform="matrix(0,1,1,0,0,0)" /><rect
         style="fill:#cccccc;fill-opacity:1;stroke-width:1.03609"
         id="rect2685-5-8-3-7-7-7-2-6-3-9-3-4-5"
         width="3.8717601"
         height="4.4166093"
         x="215.46117"
         y="567.20636"
         ry="0.34498641"
         transform="matrix(0,1,1,0,0,0)" /><rect
         style="fill:#cccccc;fill-opacity:1;stroke-width:1.03609"
         id="rect2685-5-8-3-7-7-7-2-6-3-9-3-1-5"
         width="3.8717601"
         height="4.4166093"
         x="549.45575"
         y="248.55087"
         ry="0.34498641"
         transform="matrix(0.70710678,0.70710678,0.70710678,-0.70710678,0,0)" /><rect
         style="fill:#cccccc;fill-opacity:1;stroke-width:1.03609"
         id="rect2685-5-8-3-7-7-7-2-6-3-9-3-1-9-5"
         width="3.8717601"
         height="4.4166093"
         x="-245.88168"
         y="-546.78656"
         ry="0.34498641"
         transform="rotate(135)" /><rect
         style="fill:#cccccc;fill-opacity:1;stroke-width:1.03609"
         id="rect2685-5-8-3-7-7-7-2-6-3-9-3-1-3-8"
         width="3.8717601"
         height="4.4166093"
         x="-553.32751"
         y="-239.34073"
         ry="0.34498641"
         transform="matrix(-0.70710678,-0.70710678,-0.70710678,0.70710678,0,0)" /><rect
         style="fill:#cccccc;fill-opacity:1;stroke-width:1.03609"
         id="rect2685-5-8-3-7-7-7-2-6-3-9-3-1-7-0"
         width="3.8717601"
         height="4.4166093"
         x="-245.88168"
         y="-560.41333"
         ry="0.34498641"
         transform="rotate(135)" /></g></g></svg>
